<svg xmlns="http://www.w3.org/2000/svg" xmlns:xlink="http://www.w3.org/1999/xlink" viewBox="0 0 97.73 86.96"><defs><style>.cls-1{fill:#00f6ee;}</style><symbol id="ACC-Short" data-name="ACC-Short" viewBox="0 0 97.73 86.96"><path d="M48,71.06a53.18,53.18,0,0,1-12.84,3A39.93,39.93,0,0,1,23,73.61a17.46,17.46,0,0,1-9-4.51q-3.49-3.39-3.49-9.35,0-9.34,6.21-14.29t17.17-6a111.5,111.5,0,0,1,24.88.85v-9q-17.32-3.06-30.57-1.19T7.48,39.34Q0,46.66,0,59.75q0,8.32,3.91,13.94A23.49,23.49,0,0,0,14.28,82a38.48,38.48,0,0,0,14.29,2.89,59.86,59.86,0,0,0,15.9-2.21A47.72,47.72,0,0,0,58.8,76.2v-11A39.89,39.89,0,0,1,48,71.06Z"/><path class="cls-1" d="M64.32,77.65v8H75.54l.17-42.34q-.17-8.67-.51-16.07a36.46,36.46,0,0,0-2.8-13q-2.48-5.61-9.1-9A37.41,37.41,0,0,0,50.12.62,50.69,50.69,0,0,0,34.9.53,45.08,45.08,0,0,0,20,5.38a39,39,0,0,0-12.16,10l7.31,7.65a23.09,23.09,0,0,1,8.93-8.33,37.68,37.68,0,0,1,12.76-4.25A36,36,0,0,1,50,10.82,20.89,20.89,0,0,1,60.15,16q4,3.82,4,10.45v6.47h0v9h0V66.76l0,0"/><path d="M87.33,43.71a5.67,5.67,0,0,1-3.79-1.56,4.65,4.65,0,0,1-1.48-3.72,5.07,5.07,0,0,1,1.56-3.6,5.41,5.41,0,0,1,3.71-1.52,4.53,4.53,0,0,1,3.6,1.44,5.44,5.44,0,0,1,1.52,3.68A5,5,0,0,1,91,42.23,4.7,4.7,0,0,1,87.33,43.71Zm-5,21.82a5,5,0,0,1,1.56-3.59,5.37,5.37,0,0,1,3.72-1.52,4.56,4.56,0,0,1,3.63,1.44,5,5,0,0,1,1.48,3.67A15.42,15.42,0,0,1,92,69.69q-.72,2.48-1.72,5c-.66,1.7-1.32,3.28-2,4.72L84.7,77.93a16.52,16.52,0,0,0,1.36-3.6,32.38,32.38,0,0,0,.72-3.84A4.19,4.19,0,0,1,83.58,69,4.62,4.62,0,0,1,82.3,65.53Z"/></symbol></defs><g id="Layer_2" data-name="Layer 2"><g id="Layer_1-2" data-name="Layer 1"><use width="97.73" height="86.96" xlink:href="#ACC-Short"/></g></g></svg>